
<global>
amp_veltrack=0
ampeg_release=0.35
</global>

<group>
group_label=Group_0-64
lpc_hicc1=64
lpc_locc1=0

<region>
hikey=A#5
hivel=127
lokey=A5
loop_end=288414
loop_mode=loop_continuous
loop_start=60175
loop_xfade=27324
lovel=1
lpc=Lx1hQRO31sHKGaxBPH0owa/uC0E2Y8/AuBeGQJjadr+RZtI/aM6qv9ZRYD+2Hmm+EK+WPwsms7xrvDg/kc30P1g84b9N8sQ+VJxPP0D19j483lY+2cPWvQKYSr8xQJQ/
lpc_rms=-32.18
pitch_keycenter=A#5
sample=Piccolo_trill_wholetone_PP_A#4.opus
</region>

<region>
hikey=A#6
hivel=127
lokey=A6
loop_end=281463
loop_mode=loop_continuous
loop_start=58724
loop_xfade=26665
lovel=1
lpc=7QOCQa/hQ8G1AkxBszGZwKAaFUFAlnw/92EeQXPJs78cxvtAZ84cQJZvpUBdu7O/gXqPutzhDr9HGo9AQIQEwEMGrb7pf+2+giQuwCJckD+a03O/DD+2Pl/DvsCUdolA
lpc_rms=-32.87
pitch_keycenter=A#6
sample=Piccolo_trill_wholetone_PP_A#5.opus
</region>

<region>
hikey=C6
hivel=127
lokey=B5
loop_end=272980
loop_mode=loop_continuous
loop_start=56955
loop_xfade=25861
lovel=1
lpc=PAaFQVMg38H13cBBS8KNwS1IZkH5uwLBTJ0DQefLlMBnjXVA9lstv9iKsT9mnz4/VTG4PyOzuD/HNp6/rc6/P04z4j8+hZ8+oEUHQNBUlT4XojHAj26kQDxaCcGbWPpA
lpc_rms=-36.85
pitch_keycenter=C6
sample=Piccolo_trill_wholetone_PP_C5.opus
</region>

<region>
hikey=C7
hivel=127
lokey=B6
loop_end=284873
loop_mode=loop_continuous
loop_start=59436
loop_xfade=26988
lovel=1
lpc=AtUTQqt+qMEyy7VBHlctwJ4YlUHnFAhBrA6vQcxum0CfGo1BAQI6QUDs9UA58obBug2HQZUxxUC3b7g/ldlXQLgSjcApQeG/eud4wK0bgUDVPBzBjhUPQTFkqT9eRl7A
lpc_rms=-23.32
pitch_keycenter=C7
sample=Piccolo_trill_wholetone_PP_C6.opus
</region>

<region>
hikey=D6
hivel=127
lokey=C#6
loop_end=287096
loop_mode=loop_continuous
loop_start=59900
loop_xfade=27199
lovel=1
lpc=EM2dQSZm6sGmV7VBt2FQwTpRREF7T6rAY3DTQKTgCsHKYCxBUaR1vBvke0B+YDnA9Q50QBHEjD9HUIBA54ltv0j6J0CLdgHAK8U0QOoRbz+9lma/ee+BP3IvXkDhuM29
lpc_rms=-35.16
pitch_keycenter=D6
sample=Piccolo_trill_wholetone_PP_D5.opus
</region>

<region>
hikey=D7
hivel=127
lokey=C#7
loop_end=285612
loop_mode=loop_continuous
loop_start=59590
loop_xfade=27058
lovel=1
lpc=M6vZQR1cisECWrhBPDB+P1NChkFZKDxBeLEdQZ2vdUEE6UVBChrrv+hGQECWIlhBkwkZQOOY2T45Oym/G5Q6QGNSkEDrbpm/f3stP/RuOkEJmzDA8pAFQHU/oT/XirFA
lpc_rms=-24.57
pitch_keycenter=D7
sample=Piccolo_trill_wholetone_PP_D6.opus
</region>

<region>
hivel=127
key=E5
loop_end=274321
loop_mode=loop_continuous
loop_start=57234
loop_xfade=25989
lovel=1
lpc=HvE4QZ3gsMEZNbhBNaacweewT0Fx4NfAz/G0QMTRmsAnOaRAb9CZwMBUMUDW4NA8yWMxPsWtpD8VGjnA5nElQHaDzb/R3BM/KPJdP26Tgz4SKTO/EAPIP3FGjr9htoY/
lpc_rms=-41.72
sample=Piccolo_trill_wholetone_PP_E4.opus
</region>

<region>
hikey=E6
hivel=127
lokey=D#6
loop_end=285298
loop_mode=loop_continuous
loop_start=59524
loop_xfade=27029
lovel=1
lpc=rpuwQWSMBsLfBvlBqB57wZCBQEFbvanAuqPMQCzDJMAkgWlBgPDxwCpi60C64Yy/IY31QNB++D46B4FAZqncv4xFoT+q9ptA7n8UwEGnQEDLCwc+VmGxPxGaXUBabPK/
lpc_rms=-30.70
pitch_keycenter=E6
sample=Piccolo_trill_wholetone_PP_E5.opus
</region>

<region>
hikey=E7
hivel=127
lokey=D#7
loop_end=282003
loop_mode=loop_continuous
loop_start=58837
loop_xfade=26716
lovel=1
lpc=7ly5QZToccFDVMFBf8FZwHFhn0GoNMtAmGVrQdiCV0Gj/7k/AJOWQFSBoEHwOSI/T+NVQSCz6z/ZBC5BJaT9QCTv6T8kL4lBAIGAwGOpjkA4wGZAHgU6v1cflkBmvpfA
lpc_rms=-21.81
pitch_keycenter=E7
sample=Piccolo_trill_wholetone_PP_E6.opus
</region>

<region>
hikey=F#5
hivel=127
lokey=F5
loop_end=285062
loop_mode=loop_continuous
loop_start=59475
loop_xfade=27006
lovel=1
lpc=MNd4QeWp8cEoUQFCoVzrwdUg+0GGId3BJRS2QbsijsHmalpBUUAFwZMZ3kBeuE7AEQLuP5d+qz+eraO/J5r8P+MF/78dYUlAWKWsv4dyCkDLA8u/zY4VQHrLIMA4NllA
lpc_rms=-35.06
pitch_keycenter=F#5
sample=Piccolo_trill_wholetone_PP_F#4.opus
</region>

<region>
hikey=F#6
hivel=127
lokey=F6
loop_end=284785
loop_mode=loop_continuous
loop_start=59418
loop_xfade=26980
lovel=1
lpc=jP0zQUVgZMEkkWtBR17awOktB0F2fiPAFbi5QK6zuj95ZZ1AdfeUP49faUByP4xAzPdnQFt0iUB5Ooq+JtcgQDCYiEAmDiY/ARjQP03iCUB0nJA/RQcRQLY9BcBLyyVA
lpc_rms=-34.74
pitch_keycenter=F#6
sample=Piccolo_trill_wholetone_PP_F#5.opus
</region>

<region>
hikey=F#7
hivel=127
lokey=F7
loop_end=220942
loop_mode=loop_continuous
loop_start=46097
loop_xfade=20931
lovel=1
lpc=0E0wQYOwEcGDVjNB211UwFC/H0E1NwM/+rgEQX9vIMD3561At3juQGep1T5vdtRAvPSAPpEr4kAxrA0/G2emQPGqnT+Q/pdAiOoBQHYYckC1Oi8/gVmrPwhURUAq4BE/
lpc_rms=-15.76
pitch_keycenter=F#7
sample=Piccolo_trill_wholetone_PP_F#6.opus
</region>

<region>
hikey=G#5
hivel=127
lokey=G5
loop_end=281320
loop_mode=loop_continuous
loop_start=58695
loop_xfade=26652
lovel=1
lpc=0/1ZQUFW5sHKOt9B5tyfwfCKmEGkBIXBzH8zQTdz1sAoqI5AuTXEv10E5T66Onw/+TLQvyTm9T8mqOi/bvFDQEHH6r9LSD4/awmiP7oYKMAyI1VAbxhSwEkacEDnxOW/
lpc_rms=-34.01
pitch_keycenter=G#5
sample=Piccolo_trill_wholetone_PP_G#4.opus
</region>

<region>
hikey=G#6
hivel=127
lokey=G6
loop_end=285276
loop_mode=loop_continuous
loop_start=59520
loop_xfade=27026
lovel=1
lpc=7CaKQenUi8En3JZB9hcYwcZAYUFaMMTAVco+QcrfH0AZdp1ARUE1QGYQvEBlY/NAgc9LwHkd4z+695FAZ2GUv2zYMUD7dYe/dlacQAyEmMDmwWA/37ZLv7dHqj9RHlXA
lpc_rms=-31.60
pitch_keycenter=G#6
sample=Piccolo_trill_wholetone_PP_G#5.opus
</region>

<region>
hikey=G#7
hivel=127
lokey=G7
loop_end=174098
loop_mode=loop_continuous
loop_start=36324
loop_xfade=16493
lovel=1
lpc=QURuQWz7AMEDrGpBdyY8P6j0PEH/Iu5Av6X+QGijtD8lF3tBh2ooQAhIS0GiZI9A09ETQUwdoEDTSb5AXpUFQTT5Y0AmcwNBxBULQPogwkC2Y19AUfiVPxUHNUDPyZu/
lpc_rms=-14.18
pitch_keycenter=G#7
sample=Piccolo_trill_wholetone_PP_G#6.opus
</region>
</group>

<group>
group_label=Group_65-127
lpc_hicc1=127
lpc_locc1=65

<region>
hikey=A#5
hivel=127
lokey=A5
loop_end=289957
loop_mode=loop_continuous
loop_start=60497
loop_xfade=27470
lovel=1
lpc=H2YwQdKzvcFdQNtBHca2wWrllkHkzGrBBL1NQd3DEMGAfbtAuiq4v0Wetj6QS6a+tLapP9UOED5vp7q+gNLLP8SIrD7Wbu6/oAdYQAKwG8BVjnFArfSUwOTaJ0BogdC8
lpc_rms=-24.93
pitch_keycenter=A#5
sample=Piccolo_trill_wholetone_FF_A#4.opus
</region>

<region>
hikey=A#6
hivel=127
lokey=A6
loop_end=301762
loop_mode=loop_continuous
loop_start=62960
loop_xfade=28588
lovel=1
lpc=H2P+QbKNvsEBy+tBrUFHwScsyUFaupc/AzmvQUvhzUCxfIBBvndpQZWVmUEhO6S/ZIUrQaGc10Ap+3NBXI24QHlE7EDi+G1AWcVWQB4OCkHcR2/ADqIcQV4TeMHU2YpB
lpc_rms=-15.55
pitch_keycenter=A#6
sample=Piccolo_trill_wholetone_FF_A#5.opus
</region>

<region>
hikey=C6
hivel=127
lokey=B5
loop_end=293227
loop_mode=loop_continuous
loop_start=61179
loop_xfade=27780
lovel=1
lpc=nFJ4QThK8MHn7PhBFXK5wTAklUF/gWHBHwpQQTa2BsFuPwFBVKyiwKdVv0DITXzAgACKQDZd8L/Jn0FAweAov0LTyj/u956+9EVfQI5VfcARDZxAksaBv8wgtMAC8sRA
lpc_rms=-23.23
pitch_keycenter=C6
sample=Piccolo_trill_wholetone_FF_C5.opus
</region>

<region>
hikey=C7
hivel=127
lokey=B6
loop_end=290757
loop_mode=loop_continuous
loop_start=60664
loop_xfade=27546
lovel=1
lpc=rTIvQqhtHMLdNSRCv5pSwetEAUKmGgE/TyriQYQrvUBprrVBmJR5QZwKV0HWIgPBNdX7QVpWpkDeXkdBLUokQZp4D0CI/DpBdd4gwBYui0Hux1TB1/XTQV6OhcG2/VBB
lpc_rms=-12.62
pitch_keycenter=C7
sample=Piccolo_trill_wholetone_FF_C6.opus
</region>

<region>
hikey=D6
hivel=127
lokey=C#6
loop_end=292512
loop_mode=loop_continuous
loop_start=61030
loop_xfade=27712
lovel=1
lpc=gtdYQdFllcGryIBBYTMKwcbwtUBWygLABLWXQAz6RsDI5rJAK9dCPg4bOEA/w4C/ZNmPQDvFDD3H5I4/gQMaQGmN2D8VqXe/we2LPrTGBUAn+M4+hXMjPVhi8T8pSps/
lpc_rms=-29.23
pitch_keycenter=D6
sample=Piccolo_trill_wholetone_FF_D5.opus
</region>

<region>
hikey=D7
hivel=127
lokey=C#7
loop_end=285208
loop_mode=loop_continuous
loop_start=59506
loop_xfade=27020
lovel=1
lpc=0zmxQUU4WcEDD5lBd4Whv7URqUGSIINA6P90QW+bNEHbSWpB8gIUQDQqBEEGdn9BuNHlQJXL4kDz6sdA+CjnQHetGUGJ+7FA7k6EQJdIckGRBUzAnUPEQMkK1D+UZ8NA
lpc_rms=-20.67
pitch_keycenter=D7
sample=Piccolo_trill_wholetone_FF_D6.opus
</region>

<region>
hivel=127
key=E5
loop_end=284683
loop_mode=loop_continuous
loop_start=59396
loop_xfade=26970
lovel=1
lpc=S2VDQVg73cHtnvFBvri8wVlcmUG1nmTBATUdQQ/fAMHKOxdBnlgMwWWJxUA7X3rARjmNQHNIP8ByNCc/YNqavuYC3T+bxaC/Gw+jP+x70L4vgOW+CFXCP1y59r+v+wFA
lpc_rms=-29.50
sample=Piccolo_trill_wholetone_FF_E4.opus
</region>

<region>
hikey=E6
hivel=127
lokey=D#6
loop_end=286960
loop_mode=loop_continuous
loop_start=59871
loop_xfade=27186
lovel=1
lpc=+tQ2QXUBlMFNfphB4XE7wUX3KUGBH9XAZAbOQC8r/7+TGbhAAJWzvu1iB7/ZJ4RAeJMjPy7VTkCsZtC/7IpbQMrNIsBaHLdAvVF7wMhzQUDA1vO9fqNnPozaxT8CVd6+
lpc_rms=-27.27
pitch_keycenter=E6
sample=Piccolo_trill_wholetone_FF_E5.opus
</region>

<region>
hikey=E7
hivel=127
lokey=D#7
loop_end=288016
loop_mode=loop_continuous
loop_start=60092
loop_xfade=27286
lovel=1
lpc=aOD9QQmEusGGPPFB8/YUwWTz7kGl/OZAER+6QTLNhkEOdPfAedqOQdzZi0Eby8tAO0NpQWKFlMCDdLJAZCKcwHojwUCwaFJBasdZwcTSK0EVdA7B7OlNQH/7JUCifZ8/
lpc_rms=-13.32
pitch_keycenter=E7
sample=Piccolo_trill_wholetone_FF_E6.opus
</region>

<region>
hikey=F#5
hivel=127
lokey=F5
loop_end=291740
loop_mode=loop_continuous
loop_start=60869
loop_xfade=27639
lovel=1
lpc=bVI6QcZvv8E84s1Byxqkwb9alUEmaG3BA/cvQbI59sASatJAf2uMwBR3cEDqeMO/E8boP0tPQ7+QX+8+2LViPlHJFz8B/Cs/Sf3zvC0FLT4Za5++SRUIQGQIFcCu9R9A
lpc_rms=-28.47
pitch_keycenter=F#5
sample=Piccolo_trill_wholetone_FF_F#4.opus
</region>

<region>
hikey=F#6
hivel=127
lokey=F6
loop_end=291084
loop_mode=loop_continuous
loop_start=60732
loop_xfade=27577
lovel=1
lpc=+TleQUv9i8EjeJdBOp8UwTMGH0FRpZG/EgyzQME+RkCRfDJAL3a0QIWVl0DH2T1ABQqtQIgInkDq+Je9JCptQHb3KkAD/DBAopMkQEICiz9lcno/Pa4XQI/K5D6IWKY+
lpc_rms=-22.66
pitch_keycenter=F#6
sample=Piccolo_trill_wholetone_FF_F#5.opus
</region>

<region>
hikey=F#7
hivel=127
lokey=F7
loop_end=220942
loop_mode=loop_continuous
loop_start=46097
loop_xfade=20931
lovel=1
lpc=0E0wQYOwEcGDVjNB211UwFC/H0E1NwM/+rgEQX9vIMD3561At3juQGep1T5vdtRAvPSAPpEr4kAxrA0/G2emQPGqnT+Q/pdAiOoBQHYYckC1Oi8/gVmrPwhURUAq4BE/
lpc_rms=-15.76
pitch_keycenter=F#7
sample=Piccolo_trill_wholetone_FF_F#6.opus
</region>

<region>
hikey=G#5
hivel=127
lokey=G5
loop_end=289916
loop_mode=loop_continuous
loop_start=60488
loop_xfade=27466
lovel=1
lpc=kohBQUM878E/1RpCJiwHwoJP10EG56/BbnydQWTucsGBGTFBwybKwGVji0AVwiHAqJ9dP4Ut9D+Z2Q/AaVk2QNU2A8D5Hew/E7u1PnOclL9ZabI/1NbTPbRZdL5V7MA+
lpc_rms=-24.09
pitch_keycenter=G#5
sample=Piccolo_trill_wholetone_FF_G#4.opus
</region>

<region>
hikey=G#6
hivel=127
lokey=G6
loop_end=290294
loop_mode=loop_continuous
loop_start=60567
loop_xfade=27502
lovel=1
lpc=f8RVQQEmhsEN4YxBduEewePGREGbssrABCIFQeq8qz2N9IBAuq4AQJ4gAECXPsJA9HuuwFRHhUAK0/A8wm3DviTNHEA0BiDAni84QATWksA9SGNARR8jwBHcqT6tjPu/
lpc_rms=-20.60
pitch_keycenter=G#6
sample=Piccolo_trill_wholetone_FF_G#5.opus
</region>

<region>
hikey=G#7
hivel=127
lokey=G7
loop_end=174098
loop_mode=loop_continuous
loop_start=36324
loop_xfade=16493
lovel=1
lpc=QURuQWz7AMEDrGpBdyY8P6j0PEH/Iu5Av6X+QGijtD8lF3tBh2ooQAhIS0GiZI9A09ETQUwdoEDTSb5AXpUFQTT5Y0AmcwNBxBULQPogwkC2Y19AUfiVPxUHNUDPyZu/
lpc_rms=-14.18
pitch_keycenter=G#7
sample=Piccolo_trill_wholetone_FF_G#6.opus
</region>
</group>